<svg width="1200" height="630" viewBox="0 0 1200 630" xmlns="http://www.w3.org/2000/svg">
  <defs>
    <linearGradient id="grad" x1="0%" y1="0%" x2="100%" y2="100%">
      <stop offset="0%" style="stop-color:#BFFF00"/>
      <stop offset="100%" style="stop-color:#00D4AA"/>
    </linearGradient>
    <pattern id="dots" width="40" height="40" patternUnits="userSpaceOnUse">
      <circle cx="1" cy="1" r="1" fill="rgba(191,255,0,0.12)"/>
    </pattern>
  </defs>
  <rect width="1200" height="630" fill="#0F0F1A"/>
  <rect width="1200" height="630" fill="url(#dots)"/>
  <!-- Logo mark -->
  <path d="M60 50 L96 50 L96 76 L83.4 86 L60 86 Z" fill="#BFFF00"/>
  <text x="71" y="76" font-family="sans-serif" font-weight="800" font-size="26" fill="#0F0F1A" text-anchor="middle">B</text>
  <text x="108" y="76" font-family="sans-serif" font-weight="700" font-size="22" fill="#F0F0F0" letter-spacing="-0.5">Brackstone Digital</text>
  <!-- Main text -->
  <text x="60" y="260" font-family="sans-serif" font-weight="800" font-size="72" fill="#F0F0F0" letter-spacing="-3">Your business</text>
  <text x="60" y="340" font-family="sans-serif" font-weight="800" font-size="72" fill="#F0F0F0" letter-spacing="-3">deserves a</text>
  <text x="60" y="420" font-family="sans-serif" font-weight="800" font-size="72" fill="url(#grad)" letter-spacing="-3">growth engine.</text>
  <!-- Subtext -->
  <text x="60" y="480" font-family="sans-serif" font-weight="400" font-size="20" fill="#8888AA">Cold email · Voice AI · Websites · Paid ads</text>
  <!-- Accent line -->
  <rect x="60" y="520" width="200" height="3" fill="#BFFF00" opacity="0.6"/>
  <text x="60" y="560" font-family="sans-serif" font-weight="500" font-size="16" fill="#8888AA">brackstonedigital.co.uk</text>
  <!-- Grid cells on right -->
  <rect x="900" y="180" width="50" height="50" fill="none" stroke="rgba(191,255,0,0.15)" stroke-width="1"/>
  <rect x="960" y="180" width="50" height="50" fill="none" stroke="rgba(191,255,0,0.15)" stroke-width="1"/>
  <rect x="1020" y="180" width="50" height="50" fill="rgba(191,255,0,0.06)" stroke="rgba(191,255,0,0.2)" stroke-width="1"/>
  <rect x="900" y="240" width="50" height="50" fill="rgba(191,255,0,0.06)" stroke="rgba(191,255,0,0.2)" stroke-width="1"/>
  <rect x="960" y="240" width="50" height="50" fill="none" stroke="rgba(191,255,0,0.15)" stroke-width="1"/>
  <rect x="1020" y="240" width="50" height="50" fill="none" stroke="rgba(191,255,0,0.15)" stroke-width="1"/>
  <rect x="1080" y="240" width="50" height="50" fill="rgba(0,212,170,0.08)" stroke="rgba(0,212,170,0.25)" stroke-width="1"/>
  <rect x="900" y="300" width="50" height="50" fill="none" stroke="rgba(191,255,0,0.15)" stroke-width="1"/>
  <rect x="960" y="300" width="50" height="50" fill="rgba(191,255,0,0.06)" stroke="rgba(191,255,0,0.2)" stroke-width="1"/>
  <rect x="1020" y="300" width="50" height="50" fill="none" stroke="rgba(191,255,0,0.15)" stroke-width="1"/>
  <rect x="1080" y="300" width="50" height="50" fill="none" stroke="rgba(191,255,0,0.15)" stroke-width="1"/>
  <rect x="960" y="360" width="50" height="50" fill="rgba(0,212,170,0.08)" stroke="rgba(0,212,170,0.25)" stroke-width="1"/>
  <rect x="1020" y="360" width="50" height="50" fill="rgba(191,255,0,0.06)" stroke="rgba(191,255,0,0.2)" stroke-width="1"/>
  <!-- Grid lines -->
  <line x1="880" y1="200" x2="1150" y2="200" stroke="rgba(191,255,0,0.06)" stroke-width="1"/>
  <line x1="880" y1="260" x2="1150" y2="260" stroke="rgba(191,255,0,0.06)" stroke-width="1"/>
  <line x1="880" y1="320" x2="1150" y2="320" stroke="rgba(191,255,0,0.06)" stroke-width="1"/>
  <line x1="920" y1="160" x2="920" y2="420" stroke="rgba(191,255,0,0.06)" stroke-width="1"/>
  <line x1="980" y1="160" x2="980" y2="420" stroke="rgba(191,255,0,0.06)" stroke-width="1"/>
  <line x1="1040" y1="160" x2="1040" y2="420" stroke="rgba(191,255,0,0.06)" stroke-width="1"/>
</svg>
